<svg width="345" height="50" viewBox="0 0 345 50" fill="none" xmlns="http://www.w3.org/2000/svg">
<g clip-path="url(#clip0_916_6824)">
<path d="M139.433 27.087L138.736 29.686L136.192 29.7398C135.431 28.3294 135 26.7156 135 25.0007C135 23.3424 135.403 21.7786 136.118 20.4016H136.119L138.384 20.8169L139.376 23.0687C139.169 23.6743 139.056 24.3243 139.056 25.0007C139.056 25.7348 139.189 26.4381 139.433 27.087Z" fill="#FBBB00"/>
<path d="M154.825 23.1323C154.94 23.7373 155 24.362 155 25.0005C155 25.7165 154.925 26.4149 154.781 27.0885C154.295 29.3809 153.022 31.3826 151.26 32.7992L151.26 32.7986L148.406 32.653L148.003 30.132C149.172 29.4463 150.086 28.3732 150.567 27.0885H145.219V23.1323H150.645H154.825Z" fill="#518EF8"/>
<path d="M151.261 32.7983L151.262 32.7988C149.548 34.1763 147.371 35.0005 145.001 35.0005C141.193 35.0005 137.882 32.8719 136.193 29.7394L139.434 27.0865C140.278 29.3405 142.452 30.9449 145.001 30.9449C146.097 30.9449 147.123 30.6487 148.004 30.1317L151.261 32.7983Z" fill="#28B446"/>
<path d="M151.383 17.3023L148.143 19.9546C147.232 19.3848 146.154 19.0556 145 19.0556C142.393 19.0556 140.178 20.7337 139.376 23.0684L136.118 20.4013H136.117C137.782 17.1924 141.135 15 145 15C147.426 15 149.651 15.8643 151.383 17.3023Z" fill="#F14336"/>
<path d="M166.875 31.49C165.096 31.49 163.719 31.0253 162.744 30.096C161.769 29.1553 161.282 27.6933 161.282 25.71V25.353C161.282 24.2877 161.435 23.364 161.741 22.582C162.047 21.7887 162.472 21.171 163.016 20.729C163.56 20.287 164.161 19.964 164.818 19.76C165.475 19.556 166.201 19.454 166.994 19.454C168.263 19.454 169.329 19.6807 170.19 20.134V21.8C169.204 21.3693 168.156 21.154 167.045 21.154C164.676 21.154 163.492 22.497 163.492 25.183V25.71C163.492 27.0473 163.73 28.073 164.206 28.787C164.693 29.4897 165.577 29.841 166.858 29.841C167.515 29.841 168.11 29.756 168.643 29.586V26.934H166.484V25.37H170.683V30.776C169.504 31.252 168.235 31.49 166.875 31.49ZM176.109 31.456C174.783 31.456 173.757 31.0763 173.032 30.317C172.318 29.5463 171.961 28.4753 171.961 27.104V26.832C171.961 25.4493 172.341 24.367 173.1 23.585C173.859 22.7917 174.868 22.395 176.126 22.395C177.441 22.395 178.455 22.7803 179.169 23.551C179.894 24.3103 180.257 25.387 180.257 26.781V27.019C180.257 28.4017 179.877 29.4897 179.118 30.283C178.359 31.065 177.356 31.456 176.109 31.456ZM176.143 29.977C177.526 29.977 178.217 29.0477 178.217 27.189V26.764C178.217 25.6987 178.024 24.9507 177.639 24.52C177.265 24.0893 176.749 23.874 176.092 23.874C175.412 23.874 174.885 24.112 174.511 24.588C174.148 25.064 173.967 25.7667 173.967 26.696V27.104C173.967 28.158 174.16 28.9003 174.545 29.331C174.93 29.7617 175.463 29.977 176.143 29.977ZM185.313 31.456C183.987 31.456 182.962 31.0763 182.236 30.317C181.522 29.5463 181.165 28.4753 181.165 27.104V26.832C181.165 25.4493 181.545 24.367 182.304 23.585C183.064 22.7917 184.072 22.395 185.33 22.395C186.645 22.395 187.659 22.7803 188.373 23.551C189.099 24.3103 189.461 25.387 189.461 26.781V27.019C189.461 28.4017 189.082 29.4897 188.322 30.283C187.563 31.065 186.56 31.456 185.313 31.456ZM185.347 29.977C186.73 29.977 187.421 29.0477 187.421 27.189V26.764C187.421 25.6987 187.229 24.9507 186.843 24.52C186.469 24.0893 185.954 23.874 185.296 23.874C184.616 23.874 184.089 24.112 183.715 24.588C183.353 25.064 183.171 25.7667 183.171 26.696V27.104C183.171 28.158 183.364 28.9003 183.749 29.331C184.135 29.7617 184.667 29.977 185.347 29.977ZM194.076 33.785C192.738 33.785 191.73 33.6037 191.05 33.241C190.37 32.8897 190.03 32.3967 190.03 31.762C190.03 30.9347 190.574 30.3623 191.662 30.045V29.977C191.39 29.8863 191.169 29.7277 190.999 29.501C190.829 29.263 190.744 28.9967 190.744 28.702C190.744 28.4187 190.823 28.1807 190.982 27.988C191.152 27.784 191.412 27.5687 191.764 27.342C191.027 26.866 190.659 26.1803 190.659 25.285V25.132C190.659 24.248 190.976 23.5737 191.611 23.109C192.245 22.6443 193.095 22.412 194.161 22.412C194.614 22.412 195.067 22.4573 195.521 22.548H198.479V23.84H197.136C197.43 24.1687 197.578 24.5823 197.578 25.081V25.2C197.578 26.0953 197.266 26.7697 196.643 27.223C196.019 27.665 195.186 27.886 194.144 27.886C193.566 27.886 193.107 27.8293 192.767 27.716C192.744 27.7387 192.71 27.767 192.665 27.801C192.631 27.8237 192.602 27.8463 192.58 27.869C192.568 27.8803 192.551 27.8973 192.529 27.92C192.506 27.9427 192.489 27.9653 192.478 27.988C192.466 28.0107 192.455 28.039 192.444 28.073C192.444 28.0957 192.444 28.124 192.444 28.158C192.444 28.5433 192.704 28.736 193.226 28.736H195.64C197.532 28.736 198.479 29.4727 198.479 30.946C198.479 31.8073 198.11 32.493 197.374 33.003C196.648 33.5243 195.549 33.785 194.076 33.785ZM194.042 32.459C195.662 32.459 196.473 32.0623 196.473 31.269C196.473 30.929 196.376 30.6967 196.184 30.572C195.991 30.4473 195.634 30.385 195.113 30.385H192.869C192.268 30.5777 191.968 30.9403 191.968 31.473C191.968 32.1303 192.659 32.459 194.042 32.459ZM194.144 26.628C195.175 26.628 195.691 26.1803 195.691 25.285V25.064C195.691 24.1233 195.175 23.653 194.144 23.653C193.101 23.653 192.58 24.112 192.58 25.03V25.234C192.58 26.1633 193.101 26.628 194.144 26.628ZM199.62 31.303V18.876L201.592 18.876V31.303H199.62ZM207.386 31.456C205.958 31.456 204.875 31.0707 204.139 30.3C203.413 29.5293 203.051 28.4413 203.051 27.036V26.798C203.051 25.3813 203.425 24.299 204.173 23.551C204.932 22.7917 205.895 22.412 207.063 22.412C208.332 22.412 209.267 22.7633 209.868 23.466C210.468 24.1687 210.769 25.2283 210.769 26.645V27.461L205.057 27.461C205.113 28.345 205.363 28.9797 205.805 29.365C206.258 29.739 206.915 29.926 207.777 29.926C208.74 29.926 209.641 29.7107 210.48 29.28V30.64C209.652 31.184 208.621 31.456 207.386 31.456ZM207.029 23.857C205.827 23.857 205.17 24.6107 205.057 26.118L208.78 26.118C208.78 25.3133 208.632 24.7353 208.338 24.384C208.054 24.0327 207.618 23.857 207.029 23.857Z" fill="black"/>
</g>
<rect x="0.5" y="0.5" width="344" height="49" rx="9.5" stroke="black"/>
<defs>
<clipPath id="clip0_916_6824">
<rect width="77" height="22" fill="white" transform="translate(134.5 14)"/>
</clipPath>
</defs>
</svg>
