<svg width="128" height="128" viewBox="0 0 128 128" fill="none" xmlns="http://www.w3.org/2000/svg">
<circle cx="64" cy="64" r="64" fill="black"/>
<path d="M92.2072 23.6284C99.1985 23.7004 104.762 29.5091 104.533 36.4971L103.065 81.3181C102.703 92.3652 89.205 97.5075 81.5842 89.5016L58.5803 65.3353L38.131 44.3145C30.4044 36.3719 36.1111 23.0507 47.1913 23.1648L92.2072 23.6284Z" fill="#00F0FF"/>
<path fill-rule="evenodd" clip-rule="evenodd" d="M62.5711 61.495L85.5957 85.6831C89.8294 90.1308 97.3281 87.274 97.5292 81.1367L98.9981 36.3157C99.1253 32.4335 96.0342 29.2064 92.1502 29.1664L47.1343 28.7028C40.9786 28.6394 37.8082 36.0401 42.1008 40.4526L62.5711 61.495ZM104.533 36.4971C104.762 29.5091 99.1985 23.7004 92.2072 23.6284L47.1913 23.1648C36.1111 23.0507 30.4044 36.3719 38.131 44.3145L58.5803 65.3353L81.5842 89.5016C89.205 97.5075 102.703 92.3652 103.065 81.3181L104.533 36.4971Z" fill="black"/>
<path d="M72.4999 44.6127C79.4913 44.6847 85.0551 50.4935 84.8261 57.4814L83.3573 102.302C82.9953 113.35 69.4977 118.492 61.877 110.486L38.873 86.3197L18.4237 65.2988C10.6971 57.3563 16.4038 44.0351 27.484 44.1492L72.4999 44.6127Z" fill="#00F0FF"/>
<path fill-rule="evenodd" clip-rule="evenodd" d="M42.8638 82.4794L65.8884 106.667C70.1222 111.115 77.6208 108.258 77.8219 102.121L79.2908 57.3C79.418 53.4179 76.327 50.1908 72.4429 50.1508L27.427 49.6872C21.2713 49.6238 18.1009 57.0245 22.3935 61.437L42.8638 82.4794ZM84.8261 57.4814C85.0551 50.4935 79.4913 44.6847 72.4999 44.6127L27.484 44.1492C16.4038 44.0351 10.6971 57.3563 18.4237 65.2988L38.873 86.3197L61.877 110.486C69.4977 118.492 82.9953 113.35 83.3573 102.302L84.8261 57.4814Z" fill="black"/>
</svg>
